{
  "title": "The Intern (2015) CAMRip [Rus + Ukr]",
  "uid": 12499717,
  "size": 1572462592,
  "categoryP": "video",
  "categoryS": "movies",
  "magnet": "?xt=urn:btih:11d9fb1e00d3e124f1843ceff739bedb405f2c3d&amp;dn=The+Intern+%282015%29+CAMRip+%5BRus+%2B+Ukr%5D&amp;tr=udp%3A%2F%2Ftracker.leechers-paradise.org%3A6969&amp;tr=udp%3A%2F%2Fzer0day.ch%3A1337&amp;tr=udp%3A%2F%2Fopen.demonii.com%3A1337&amp;tr=udp%3A%2F%2Ftracker.coppersurfer.tk%3A6969&amp;tr=udp%3A%2F%2Fexodus.desync.com%3A6969",
  "seeders": 94,
  "leechers": 1,
  "uploader": "nbdjod",
  "files": 1,
  "time": 1443350584,
  "description": "The Intern (2015) CAMRip [Rus + Ukr]\r\n\r\nAudio 1 - Russian\r\nAudio 2 - Ukrainian\r\n\r\nMI:\r\nGeneral\r\nFormat                                   : AVI\r\nFormat/Info                              : Audio Video Interleave\r\nFile size                                : 1.46 GiB\r\nDuration                                 : 1h 30mn\r\nOverall bit rate                         : 2 311 Kbps\r\nWriting application                      : VirtualDubMod 1.5.10.2 (build 2540/release)\r\nWriting library                          : VirtualDubMod build 2540/release\r\n\r\nVideo\r\nID                                       : 0\r\nFormat                                   : MPEG-4 Visual\r\nFormat profile                           : Advanced   \r\nFormat settings, BVOP                    : 2\r\nFormat settings, QPel                    : No\r\nFormat settings, GMC                     : No warppoints\r\nFormat settings, Matrix                  : Default (MPEG)\r\nCodec ID                                 : XVID\r\nCodec ID/Hint                            : XviD\r\nDuration                                 : 1h 30mn\r\nBit rate                                 : 1 761 Kbps\r\nWidth                                    : 720 pixels\r\nHeight                                   : 336 pixels\r\nDisplay aspect ratio                     : 2.143\r\nFrame rate                               : 25.000 fps\r\nColor space                              : YUV\r\nChroma subsampling                       : 4:2:0\r\nBit depth                                : 8 bits\r\nScan type                                : Progressive\r\nCompression mode                         : Lossy\r\nBits/(Pixel*Frame)                       : 0.291\r\nStream size                              : 1.12 GiB (76%)\r\nWriting library                          : XviD 1.2.1 (UTC 2008-12-04)\r\n\r\nAudio #1\r\nID                                       : 1\r\nFormat                                   : AC-3\r\nFormat/Info                              : Audio Coding 3\r\nMode extension                           : CM (complete main)\r\nFormat settings, Endianness              : Big\r\nCodec ID                                 : 2000\r\nDuration                                 : 1h 30mn\r\nBit rate mode                            : Constant\r\nBit rate                                 : 192 Kbps\r\nChannel(s)                               : 2 channels\r\nChannel positions                        : Front: L R\r\nSampling rate                            : 48.0 KHz\r\nCompression mode                         : Lossy\r\nStream size                              : 125 MiB (8%)\r\nAlignment                                : Split accross interleaves\r\n\r\nAudio #2\r\nID                                       : 2\r\nFormat                                   : MPEG Audio\r\nFormat version                           : Version 1\r\nFormat profile                           : Layer 3\r\nCodec ID                                 : 55\r\nCodec ID/Hint                            : MP3\r\nDuration                                 : 1h 30mn\r\nBit rate mode                            : Constant\r\nBit rate                                 : 256 Kbps\r\nChannel(s)                               : 2 channels\r\nSampling rate                            : 48.0 KHz\r\nCompression mode                         : Lossy\r\nStream size                              : 166 MiB (11%)\r\nAlignment                                : Aligned on interleaves\r\nWriting library                          : LAME3.98.2ЄЄЄЄЄЄЄ\r\n\r\nScreens: \nhttp://i5.imageban.ru/out/2015/09/27/b3efde27703fb20dbbb8fe479a61d75a.png \nhttp://i2.imageban.ru/out/2015/09/27/16b19bea47c41e8bff51b1a6f0542361.png \nhttp://i1.imageban.ru/out/2015/09/27/ee78c0af48c43337e3a99d8e4a73e3a0.png \nhttp://i6.imageban.ru/out/2015/09/27/e87659fcb369b3609c15a3b6eda199fe.png\r\n\r\nSample: \nhttp://sendfile.su/1158527",
  "parsed": {
    "xt": "urn:btih:11d9fb1e00d3e124f1843ceff739bedb405f2c3d",
    "dn": "The Intern (2015) CAMRip [Rus   Ukr]",
    "tr": [
      "udp://exodus.desync.com:6969",
      "udp://open.demonii.com:1337",
      "udp://tracker.coppersurfer.tk:6969",
      "udp://tracker.leechers-paradise.org:6969",
      "udp://zer0day.ch:1337"
    ],
    "infoHash": "11d9fb1e00d3e124f1843ceff739bedb405f2c3d",
    "infoHashBuffer": {
      "type": "Buffer",
      "data": [
        17,
        217,
        251,
        30,
        0,
        211,
        225,
        36,
        241,
        132,
        60,
        239,
        247,
        57,
        190,
        219,
        64,
        95,
        44,
        61
      ]
    },
    "name": "The Intern (2015) CAMRip [Rus   Ukr]",
    "announce": [
      "udp://exodus.desync.com:6969",
      "udp://open.demonii.com:1337",
      "udp://tracker.coppersurfer.tk:6969",
      "udp://tracker.leechers-paradise.org:6969",
      "udp://zer0day.ch:1337"
    ],
    "urlList": []
  },
  "previous": 95,
  "peers": 101,
  "last_updated": "2016-12-24T17:32:05.157Z"
}